<?xml version="1.0" standalone="no"?>
<!DOCTYPE svg PUBLIC "-//W3C//DTD SVG 20010904//EN"
 "http://www.w3.org/TR/2001/REC-SVG-20010904/DTD/svg10.dtd">
<svg version="1.0" xmlns="http://www.w3.org/2000/svg"
 width="512.000000pt" height="512.000000pt" viewBox="0 0 512.000000 512.000000"
 preserveAspectRatio="xMidYMid meet">
<metadata>
Created by potrace 1.11, written by Peter Selinger 2001-2013
</metadata>
<g transform="translate(0.000000,512.000000) scale(0.100000,-0.100000)"
fill="#000000" stroke="none">
<path d="M2535 5088 c-94 -151 -135 -221 -135 -229 0 -5 -4 -9 -8 -9 -5 0 -17
-18 -27 -40 -10 -22 -22 -40 -27 -40 -4 0 -8 -4 -8 -9 0 -11 -111 -194 -123
-202 -5 -3 -9 -10 -9 -15 0 -5 -6 -17 -14 -28 -12 -18 -14 -17 -53 13 -22 17
-64 48 -93 68 -29 20 -55 40 -56 45 -2 4 -8 6 -13 2 -5 -3 -9 -1 -9 4 0 5 -24
25 -52 45 -29 19 -62 42 -73 51 -24 19 -176 131 -222 162 l-31 22 -11 -46
c-17 -76 -23 -113 -27 -151 -4 -44 -10 -85 -24 -159 -6 -31 -13 -82 -16 -112
-4 -30 -14 -98 -24 -150 -10 -52 -17 -97 -14 -101 4 -7 -41 3 -196 42 -41 10
-86 21 -100 23 -14 2 -50 11 -80 20 -30 8 -66 17 -80 20 -14 2 -73 16 -132 30
-59 14 -112 26 -118 26 -12 0 -6 -41 16 -120 9 -30 18 -64 20 -75 14 -70 14
-71 69 -295 7 -30 23 -91 34 -134 11 -44 18 -82 16 -86 -2 -4 -19 -7 -37 -8
-30 -2 -65 -7 -78 -12 -3 -1 -8 -2 -12 -1 -4 0 -40 -6 -80 -14 -40 -8 -93 -17
-118 -19 -25 -3 -58 -8 -75 -11 -120 -21 -172 -29 -264 -40 -53 -7 -64 -12
-51 -28 19 -22 65 -84 105 -142 35 -50 55 -76 108 -146 7 -8 17 -23 22 -31 6
-8 30 -44 55 -78 25 -34 50 -70 55 -79 6 -8 15 -20 21 -26 6 -5 21 -25 34 -43
21 -32 22 -34 4 -48 -11 -8 -32 -22 -49 -31 -16 -9 -41 -24 -55 -33 -50 -34
-85 -54 -91 -53 -4 1 -15 -7 -24 -17 -10 -11 -23 -20 -28 -20 -6 0 -24 -10
-41 -23 -17 -13 -38 -26 -46 -30 -8 -4 -33 -18 -55 -32 -22 -13 -56 -34 -75
-45 -19 -11 -59 -36 -88 -54 l-53 -34 26 -20 c15 -12 35 -24 46 -27 10 -4 19
-11 19 -16 0 -5 4 -9 9 -9 5 0 37 -17 71 -37 92 -56 109 -67 175 -107 33 -20
67 -41 75 -46 8 -6 59 -37 112 -69 l97 -58 -19 -21 c-11 -12 -20 -26 -20 -32
0 -5 -4 -10 -8 -10 -5 0 -22 -21 -39 -47 -17 -27 -40 -58 -50 -70 -10 -12 -29
-39 -43 -58 -14 -20 -42 -58 -62 -85 -21 -27 -38 -54 -38 -60 0 -5 -4 -10 -8
-10 -4 0 -21 -20 -36 -45 -16 -25 -33 -45 -37 -45 -5 0 -9 -5 -9 -11 0 -5 -16
-31 -35 -56 -19 -25 -34 -47 -32 -49 1 -2 31 -6 66 -9 35 -3 92 -12 125 -20
34 -7 89 -16 124 -19 34 -4 93 -13 130 -21 37 -7 90 -16 117 -19 71 -8 155
-22 160 -28 3 -2 -2 -29 -11 -58 -16 -55 -19 -64 -34 -140 -5 -25 -13 -58 -19
-73 -6 -16 -9 -33 -5 -38 3 -5 0 -9 -6 -9 -6 0 -9 -4 -6 -8 3 -5 -1 -33 -9
-63 -9 -30 -18 -67 -21 -84 -3 -16 -12 -55 -21 -85 -9 -30 -17 -64 -19 -75 -2
-11 -6 -34 -9 -52 l-6 -32 48 14 c26 8 62 16 78 19 17 3 95 22 175 42 80 20
154 38 165 40 11 2 54 13 95 23 41 10 78 17 83 14 4 -2 7 -1 7 4 0 4 15 9 33
10 29 2 33 0 35 -25 1 -15 9 -61 17 -102 8 -41 17 -102 20 -135 3 -33 10 -76
15 -95 5 -19 11 -53 14 -75 11 -90 18 -134 32 -204 8 -41 15 -76 17 -77 1 -1
53 35 115 81 61 46 112 81 112 77 0 -3 9 3 19 15 11 11 35 30 55 42 20 13 36
27 36 32 0 5 3 8 8 6 4 -1 14 4 22 11 27 22 186 137 208 149 11 7 23 9 25 5 3
-4 14 -23 25 -42 23 -41 77 -131 108 -180 76 -121 94 -151 94 -158 0 -5 8 -17
18 -28 15 -17 32 -44 66 -109 6 -11 14 -22 17 -25 3 -3 14 -20 23 -37 9 -18
20 -33 24 -33 8 0 62 86 62 100 0 4 4 10 8 12 4 1 17 19 28 38 12 19 58 96
104 170 46 74 88 144 94 155 6 11 29 48 50 83 37 59 40 62 60 48 12 -9 49 -34
84 -58 34 -23 62 -45 62 -50 0 -4 4 -8 10 -8 8 0 107 -70 160 -113 8 -7 47
-34 85 -61 39 -28 72 -53 75 -56 14 -17 99 -69 103 -63 5 8 17 87 23 148 1 17
10 69 18 115 9 47 18 102 21 123 13 96 16 116 26 172 13 74 17 104 18 133 1
14 7 22 18 22 9 0 91 -18 182 -41 91 -22 175 -42 186 -44 11 -2 54 -12 95 -23
41 -11 91 -23 110 -26 19 -3 55 -12 79 -21 24 -8 46 -13 49 -10 3 3 0 22 -6
42 -6 20 -9 40 -6 45 3 4 0 8 -6 8 -6 0 -9 4 -6 8 3 5 -2 35 -11 68 -9 32 -17
68 -19 79 -1 11 -3 21 -4 23 -2 1 -3 5 -4 10 -1 4 -8 30 -15 58 -7 29 -13 58
-14 65 -2 8 -6 20 -10 27 -5 6 -6 12 -3 12 2 0 -4 30 -14 68 -10 37 -21 83
-24 102 -3 19 -10 49 -15 67 -12 41 -16 39 154 58 22 3 60 9 85 15 42 9 64 13
165 25 22 3 63 10 90 15 48 9 90 16 165 26 62 8 66 12 38 42 -14 15 -45 56
-69 92 -24 36 -49 70 -55 75 -6 6 -26 33 -44 60 -18 28 -48 69 -66 91 -18 23
-30 44 -27 48 4 3 2 6 -4 6 -6 0 -23 19 -38 42 -15 23 -32 47 -37 52 -33 41
-68 90 -68 96 0 4 69 49 153 100 83 52 171 106 195 122 24 15 45 28 48 28 3 0
35 20 72 44 37 24 81 50 98 59 17 9 36 23 43 31 11 13 11 16 -3 16 -9 0 -16 4
-16 8 0 5 -18 17 -40 27 -22 10 -40 21 -40 25 0 4 -11 12 -26 18 -14 7 -51 29
-82 49 -31 20 -60 37 -64 38 -4 0 -17 8 -28 18 -11 9 -22 17 -25 17 -6 0 -268
160 -279 170 -4 5 15 41 44 82 90 127 130 182 151 208 11 14 45 59 74 100 30
41 75 103 100 138 25 35 45 67 45 71 0 8 -36 16 -131 27 -24 3 -82 12 -129 20
-47 8 -105 17 -130 20 -25 3 -92 14 -148 25 -57 10 -108 17 -112 14 -5 -3 -11
-1 -14 4 -4 5 -18 7 -32 5 -24 -4 -26 -2 -20 18 4 13 13 50 20 83 8 33 19 80
26 105 7 25 14 54 16 65 7 43 14 74 29 115 8 24 13 45 11 47 -2 3 5 37 16 76
11 40 24 95 29 122 5 28 12 58 15 69 6 17 2 18 -32 11 -22 -4 -50 -9 -64 -11
-14 -3 -45 -11 -70 -19 -25 -8 -61 -17 -80 -20 -19 -3 -57 -12 -85 -20 -27 -8
-66 -17 -85 -20 -19 -3 -60 -13 -90 -21 -30 -9 -64 -18 -75 -20 -11 -2 -44 -9
-73 -15 -28 -7 -54 -10 -57 -7 -3 3 -8 29 -10 59 -3 30 -12 88 -20 129 -9 42
-17 96 -19 120 -2 25 -12 85 -21 133 -9 48 -18 108 -20 132 -3 42 -11 92 -21
127 -4 14 -16 9 -72 -30 -37 -25 -71 -52 -75 -59 -5 -7 -12 -11 -18 -8 -5 4
-9 2 -9 -4 0 -5 -15 -18 -33 -30 -27 -17 -81 -55 -276 -199 -13 -9 -44 -31
-69 -48 l-46 -32 -18 23 c-10 13 -18 26 -18 29 0 3 -20 37 -45 75 -25 38 -45
74 -45 79 0 5 -9 17 -20 27 -11 10 -20 23 -20 28 0 6 -11 25 -26 44 -14 18
-23 33 -20 33 3 0 -6 17 -19 38 -14 20 -30 44 -35 52 -6 8 -33 54 -62 103 -28
48 -54 87 -58 87 -3 0 -15 -14 -25 -32z"/>
</g>
</svg>
